# xmcd CD database file
#
# Track frame offsets:
#	150
#	20108
#	36723
#	53620
#	74941
#	89859
#	112355
#	127539
#	147937
#	168418
#	184290
#	198016
#
# Disc length: 2885 seconds
#
# Revision: 3
# Processed by: cddbd v1.5.2PL0 Copyright (c) Steve Scherf et al.
# Submitted via: CDex 1.51
#
DISCID=bd0b430c
DTITLE=Sonny Landreth - The Road We're On
DYEAR=2003
DGENRE=Blues
TTITLE0=True Blue
TTITLE1=Hell At Home
TTITLE2=All About You
TTITLE3=A World Away
TTITLE4=Gone Pecan
TTITLE5=Natural World
TTITLE6=The Promise Land
TTITLE7=Fallin' For You
TTITLE8=Ol' Lady Luck
TTITLE9=Gemini Blues
TTITLE10=The Road We're On
TTITLE11=Juke Box Mama
EXTD=YEAR: 2003
EXTT0=
EXTT1=
EXTT2=
EXTT3=
EXTT4=
EXTT5=
EXTT6=
EXTT7=
EXTT8=
EXTT9=
EXTT10=
EXTT11=
PLAYORDER=
